<svg width="427" height="118" viewBox="0 0 427 118" fill="none" xmlns="http://www.w3.org/2000/svg">
<path d="M4.88811 104.921C25.115 78.2629 17.8618 36.9491 47.174 16.2361C58.8017 8.01075 73.2335 4.19717 87.4035 5.05709C102.658 5.99179 116.043 12.759 126.138 24.125C138.55 38.0707 146.252 55.7927 160.946 67.7568C167.9 73.4024 175.976 77.5525 184.986 78.375C193.847 79.1602 202.633 76.3561 210.223 71.8695C226.225 62.4477 236.619 46.7448 250.228 34.5563C256.734 28.7237 264.137 23.7885 272.661 21.62C282.644 19.0776 293.075 20.7601 302.721 23.9007C312.666 27.1534 322.013 31.9765 331.248 36.8369C340.371 41.6226 349.381 46.6326 358.205 51.9043C376.151 62.5599 393.499 74.1502 410.174 86.6752C414.324 89.7784 418.437 92.9564 422.512 96.2091C425.017 98.1907 428.607 94.6762 426.064 92.6572C409.464 79.4967 392.153 67.1586 374.245 55.8674C356.373 44.5762 337.829 33.8459 318.611 24.9475C309.189 20.5731 299.356 16.9465 288.962 15.7501C279.241 14.6658 269.558 16.3109 260.884 20.8348C244.471 29.3593 234.077 45.324 220.767 57.5873C213.999 63.8311 206.26 69.5514 197.287 72.1686C188.501 74.711 179.453 73.4772 171.489 69.0654C154.627 59.7184 145.991 41.66 134.699 26.8917C129.39 19.9375 123.371 13.5068 115.893 8.87067C109.762 5.09448 102.882 2.47733 95.8158 1.16875C81.3467 -1.56058 66.0923 0.533142 52.8943 7.00127C46.4262 10.1793 40.4441 14.4789 35.5089 19.7132C29.8633 25.7327 25.9002 32.9112 22.8718 40.5383C16.3289 57.1012 14.7212 75.3466 7.05663 91.4982C5.22462 95.3492 3.01874 99.0506 0.438969 102.453C-1.39304 104.958 2.98132 107.463 4.88811 104.921Z" fill="#231F20"/>
<path d="M27.5452 118.006C31.5098 118.006 34.7237 114.792 34.7237 110.828C34.7237 106.863 31.5098 103.649 27.5452 103.649C23.5807 103.649 20.3667 106.863 20.3667 110.828C20.3667 114.792 23.5807 118.006 27.5452 118.006Z" fill="#231F20"/>
<path d="M31.2468 90.4139C35.2114 90.4139 38.4254 87.2 38.4254 83.2355C38.4254 79.2709 35.2114 76.0569 31.2468 76.0569C27.2823 76.0569 24.0684 79.2709 24.0684 83.2355C24.0684 87.2 27.2823 90.4139 31.2468 90.4139Z" fill="#231F20"/>
<path d="M38.4251 64.0928C42.3897 64.0928 45.6036 60.8789 45.6036 56.9143C45.6036 52.9497 42.3897 49.7358 38.4251 49.7358C34.4605 49.7358 31.2466 52.9497 31.2466 56.9143C31.2466 60.8789 34.4605 64.0928 38.4251 64.0928Z" fill="#231F20"/>
<path d="M52.782 42.333C56.7466 42.333 59.9605 39.119 59.9605 35.1545C59.9605 31.1899 56.7466 27.976 52.782 27.976C48.8175 27.976 45.6035 31.1899 45.6035 35.1545C45.6035 39.119 48.8175 42.333 52.782 42.333Z" fill="#231F20"/>
<path d="M74.6917 27.9759C78.6563 27.9759 81.8702 24.762 81.8702 20.7975C81.8702 16.8329 78.6563 13.619 74.6917 13.619C70.7271 13.619 67.5132 16.8329 67.5132 20.7975C67.5132 24.762 70.7271 27.9759 74.6917 27.9759Z" fill="#231F20"/>
<path d="M102.807 35.1545C106.772 35.1545 109.986 31.9405 109.986 27.976C109.986 24.0114 106.772 20.7975 102.807 20.7975C98.8428 20.7975 95.6289 24.0114 95.6289 27.976C95.6289 31.9405 98.8428 35.1545 102.807 35.1545Z" fill="#231F20"/>
<path d="M120.791 56.8769C124.755 56.8769 127.969 53.663 127.969 49.6984C127.969 45.7338 124.755 42.5199 120.791 42.5199C116.826 42.5199 113.612 45.7338 113.612 49.6984C113.612 53.663 116.826 56.8769 120.791 56.8769Z" fill="#231F20"/>
<path d="M135.148 76.057C139.112 76.057 142.326 72.843 142.326 68.8785C142.326 64.9139 139.112 61.7 135.148 61.7C131.183 61.7 127.969 64.9139 127.969 68.8785C127.969 72.843 131.183 76.057 135.148 76.057Z" fill="#231F20"/>
<path d="M158.067 93.9284C162.031 93.9284 165.245 90.7145 165.245 86.7499C165.245 82.7853 162.031 79.5714 158.067 79.5714C154.102 79.5714 150.888 82.7853 150.888 86.7499C150.888 90.7145 154.102 93.9284 158.067 93.9284Z" fill="#231F20"/>
<path d="M186.108 104.509C190.072 104.509 193.286 101.295 193.286 97.3308C193.286 93.3662 190.072 90.1523 186.108 90.1523C182.143 90.1523 178.929 93.3662 178.929 97.3308C178.929 101.295 182.143 104.509 186.108 104.509Z" fill="#231F20"/>
<path d="M214.299 97.3307C218.263 97.3307 221.477 94.1168 221.477 90.1523C221.477 86.1877 218.263 82.9738 214.299 82.9738C210.334 82.9738 207.12 86.1877 207.12 90.1523C207.12 94.1168 210.334 97.3307 214.299 97.3307Z" fill="#231F20"/>
<path d="M239.76 76.057C243.724 76.057 246.938 72.843 246.938 68.8785C246.938 64.9139 243.724 61.7 239.76 61.7C235.795 61.7 232.581 64.9139 232.581 68.8785C232.581 72.843 235.795 76.057 239.76 76.057Z" fill="#231F20"/>
<path d="M265.258 53.0259C269.223 53.0259 272.437 49.812 272.437 45.8475C272.437 41.8829 269.223 38.6689 265.258 38.6689C261.294 38.6689 258.08 41.8829 258.08 45.8475C258.08 49.812 261.294 53.0259 265.258 53.0259Z" fill="#231F20"/>
<path d="M291.355 42.333C295.32 42.333 298.534 39.119 298.534 35.1545C298.534 31.1899 295.32 27.976 291.355 27.976C287.391 27.976 284.177 31.1899 284.177 35.1545C284.177 39.119 287.391 42.333 291.355 42.333Z" fill="#231F20"/>
<path d="M316.555 53.0259C320.52 53.0259 323.733 49.812 323.733 45.8475C323.733 41.8829 320.52 38.6689 316.555 38.6689C312.59 38.6689 309.376 41.8829 309.376 45.8475C309.376 49.812 312.59 53.0259 316.555 53.0259Z" fill="#231F20"/>
<path d="M339.025 64.0928C342.989 64.0928 346.203 60.8789 346.203 56.9143C346.203 52.9497 342.989 49.7358 339.025 49.7358C335.06 49.7358 331.846 52.9497 331.846 56.9143C331.846 60.8789 335.06 64.0928 339.025 64.0928Z" fill="#231F20"/>
<path d="M362.617 78.4498C366.582 78.4498 369.795 75.2359 369.795 71.2713C369.795 67.3067 366.582 64.0928 362.617 64.0928C358.652 64.0928 355.438 67.3067 355.438 71.2713C355.438 75.2359 358.652 78.4498 362.617 78.4498Z" fill="#231F20"/>
<path d="M387.106 93.9284C391.07 93.9284 394.284 90.7145 394.284 86.7499C394.284 82.7853 391.07 79.5714 387.106 79.5714C383.141 79.5714 379.927 82.7853 379.927 86.7499C379.927 90.7145 383.141 93.9284 387.106 93.9284Z" fill="#231F20"/>
<path d="M407.407 110.828C411.372 110.828 414.586 107.614 414.586 103.649C414.586 99.6848 411.372 96.4708 407.407 96.4708C403.443 96.4708 400.229 99.6848 400.229 103.649C400.229 107.614 403.443 110.828 407.407 110.828Z" fill="#231F20"/>
</svg>
